<svg width="1em" height="1em" viewBox="0 0 512 512" fill="none" xmlns="http://www.w3.org/2000/svg">
	<rect width="512" height="512" rx="256" fill="#24262B" />
	<path d="M49.5784 257.848C49.5784 260.318 49.6218 262.779 49.7079 265.228L51.207 265.175C51.3794 270.083 51.7245 274.947 52.2363 279.761L50.7447 279.92C51.2676 284.839 51.9633 289.706 52.8257 294.516L54.3021 294.251C55.167 299.075 56.2008 303.841 57.3971 308.542L55.9434 308.912C57.161 313.696 58.5458 318.414 60.0911 323.059L61.5144 322.586C63.0594 327.229 64.7662 331.8 66.628 336.289L65.2424 336.864C67.1301 341.416 69.176 345.886 71.3732 350.267L72.714 349.594C74.9054 353.964 77.2484 358.244 79.7361 362.428L78.4468 363.194C80.9619 367.424 83.6238 371.556 86.4256 375.584L87.6569 374.728C90.4451 378.736 93.3728 382.64 96.4329 386.433L95.2656 387.375C98.3524 391.2 101.573 394.914 104.92 398.507L106.018 397.485C109.343 401.054 112.793 404.505 116.363 407.83L115.34 408.927C118.934 412.275 122.647 415.495 126.473 418.582L127.415 417.415C131.208 420.475 135.112 423.403 139.12 426.191L138.263 427.422C142.291 430.224 146.424 432.886 150.654 435.401L151.42 434.112C155.604 436.599 159.884 438.942 164.253 441.134L163.581 442.474C167.962 444.672 172.432 446.718 176.984 448.605L177.559 447.22C182.048 449.081 186.618 450.788 191.262 452.333L190.789 453.757C195.433 455.302 200.151 456.687 204.936 457.904L205.306 456.451C210.007 457.647 214.772 458.681 219.597 459.546L219.332 461.022C224.142 461.884 229.009 462.58 233.928 463.103L234.087 461.611C238.901 462.123 243.765 462.468 248.672 462.641L248.62 464.14C251.069 464.226 253.53 464.269 256 464.269C258.47 464.269 260.931 464.226 263.38 464.14L263.328 462.641C268.235 462.468 273.099 462.123 277.913 461.611L278.072 463.103C282.991 462.58 287.858 461.884 292.668 461.022L292.403 459.546C297.228 458.681 301.993 457.647 306.694 456.451L307.064 457.904C311.849 456.687 316.567 455.302 321.211 453.757L320.738 452.333C325.382 450.788 329.952 449.081 334.441 447.22L335.016 448.605C339.568 446.718 344.038 444.672 348.419 442.474L347.747 441.134C352.116 438.942 356.396 436.599 360.58 434.112L361.346 435.401C365.576 432.886 369.709 430.224 373.737 427.422L372.88 426.191C376.888 423.403 380.792 420.475 384.585 417.415L385.527 418.582C389.353 415.495 393.066 412.275 396.66 408.927L395.637 407.83C399.207 404.505 402.657 401.054 405.982 397.485L407.08 398.507C410.427 394.914 413.648 391.2 416.734 387.375L415.567 386.433C418.627 382.64 421.555 378.736 424.343 374.728L425.574 375.584C428.376 371.557 431.038 367.424 433.553 363.194L432.264 362.428C434.752 358.244 437.095 353.964 439.286 349.594L440.627 350.267C442.824 345.886 444.87 341.416 446.758 336.864L445.372 336.289C447.234 331.8 448.941 327.23 450.486 322.586L451.909 323.059C453.454 318.415 454.839 313.697 456.057 308.912L454.603 308.542C455.799 303.841 456.833 299.075 457.698 294.251L459.174 294.516C460.037 289.706 460.732 284.839 461.255 279.92L459.764 279.761C460.275 274.947 460.621 270.083 460.793 265.176L462.292 265.228C462.378 262.779 462.422 260.318 462.422 257.848V256.616H460.922V254.153H462.422V252.922C462.422 250.451 462.378 247.991 462.292 245.541L460.793 245.594C460.621 240.686 460.275 235.822 459.764 231.008L461.255 230.85C460.732 225.931 460.037 221.063 459.174 216.253L457.698 216.518C456.833 211.694 455.799 206.928 454.603 202.227L456.057 201.858C454.839 197.073 453.454 192.355 451.909 187.71L450.486 188.184C448.941 183.54 447.234 178.97 445.372 174.48L446.758 173.905C444.87 169.353 442.824 164.883 440.627 160.502L439.286 161.175C437.095 156.806 434.752 152.526 432.264 148.342L433.553 147.575C431.038 143.345 428.376 139.213 425.574 135.185L424.343 136.042C421.555 132.033 418.627 128.129 415.567 124.337L416.734 123.395C413.648 119.569 410.427 115.856 407.08 112.262L405.982 113.284C402.657 109.715 399.207 106.264 395.637 102.939L396.66 101.842C393.066 98.4946 389.353 95.2739 385.527 92.1871L384.585 93.3545C380.792 90.2944 376.888 87.3667 372.88 84.5785L373.737 83.3471C369.709 80.5454 365.576 77.8835 361.346 75.3684L360.58 76.6577C356.396 74.17 352.116 71.827 347.747 69.6356L348.419 68.2948C344.038 66.0976 339.568 64.0517 335.016 62.164L334.442 63.5496C329.952 61.6878 325.382 59.9811 320.738 58.436L321.211 57.0127C316.567 55.4674 311.849 54.0826 307.064 52.865L306.694 54.3187C301.993 53.1224 297.228 52.0886 292.403 51.2237L292.668 49.7473C287.858 48.8849 282.991 48.1892 278.072 47.6663L277.913 49.1579C273.099 48.6461 268.235 48.3011 263.328 48.1286L263.38 46.6295C260.931 46.5434 258.47 46.5 256 46.5C253.53 46.5 251.069 46.5434 248.62 46.6295L248.672 48.1286C243.765 48.3011 238.901 48.6461 234.087 49.1579L233.928 47.6663C229.009 48.1892 224.142 48.8849 219.332 49.7473L219.597 51.2237C214.772 52.0886 210.007 53.1224 205.306 54.3187L204.936 52.865C200.151 54.0826 195.433 55.4674 190.789 57.0127L191.262 58.436C186.618 59.981 182.048 61.6878 177.559 63.5495L176.984 62.1639C172.432 64.0517 167.962 66.0976 163.581 68.2948L164.253 69.6356C159.884 71.8269 155.604 74.1699 151.42 76.6576L150.654 75.3683C146.424 77.8834 142.291 80.5454 138.263 83.3471L139.12 84.5785C135.112 87.3666 131.208 90.2943 127.415 93.3544L126.473 92.187C122.647 95.2739 118.934 98.4945 115.34 101.842L116.363 102.939C112.793 106.264 109.343 109.715 106.018 113.284L104.92 112.262C101.573 115.856 98.3524 119.569 95.2656 123.395L96.433 124.336C93.3728 128.129 90.4451 132.033 87.6569 136.041L86.4256 135.185C83.6238 139.213 80.9619 143.345 78.4468 147.575L79.7361 148.342C77.2484 152.525 74.9054 156.806 72.714 161.175L71.3732 160.502C69.176 164.883 67.1301 169.353 65.2424 173.905L66.628 174.48C64.7662 178.97 63.0595 183.54 61.5144 188.184L60.0911 187.71C58.5458 192.355 57.161 197.073 55.9434 201.857L57.3971 202.227C56.2008 206.928 55.167 211.694 54.3021 216.518L52.8257 216.253C51.9633 221.063 51.2676 225.931 50.7447 230.849L52.2363 231.008C51.7245 235.822 51.3794 240.686 51.207 245.594L49.7079 245.541C49.6218 247.991 49.5784 250.451 49.5784 252.921V254.153H51.0784V256.616H49.5784V257.848Z" fill="#2C2F35" stroke="#4B4C53" stroke-width="3" stroke-dasharray="15 15" />
	<g filter="url(#filter0_f_8_97)">
		<ellipse cx="255.722" cy="257.462" rx="144.722" ry="146.462" fill="#000C16" fill-opacity="0.23" />
	</g>
	<ellipse cx="255.722" cy="256.462" rx="144.722" ry="146.462" fill="#2496F1" fill-opacity="0.5" />
	<g filter="url(#filter1_d_8_97)">
		<ellipse cx="256" cy="255.385" rx="103.981" ry="107.692" fill="#2496F1" />
	</g>
	<defs>
		<filter id="filter0_f_8_97" x="21" y="21" width="469.444" height="472.923" filterUnits="userSpaceOnUse" color-interpolation-filters="sRGB">
			<feFlood flood-opacity="0" result="BackgroundImageFix" />
			<feBlend mode="normal" in="SourceGraphic" in2="BackgroundImageFix" result="shape" />
			<feGaussianBlur stdDeviation="45" result="effect1_foregroundBlur_8_97" />
		</filter>
		<filter id="filter1_d_8_97" x="102.019" y="97.6923" width="307.962" height="315.385" filterUnits="userSpaceOnUse" color-interpolation-filters="sRGB">
			<feFlood flood-opacity="0" result="BackgroundImageFix" />
			<feColorMatrix in="SourceAlpha" type="matrix" values="0 0 0 0 0 0 0 0 0 0 0 0 0 0 0 0 0 0 127 0" result="hardAlpha" />
			<feOffset />
			<feGaussianBlur stdDeviation="25" />
			<feComposite in2="hardAlpha" operator="out" />
			<feColorMatrix type="matrix" values="0 0 0 0 0 0 0 0 0 0 0 0 0 0 0 0 0 0 0.2 0" />
			<feBlend mode="normal" in2="BackgroundImageFix" result="effect1_dropShadow_8_97" />
			<feBlend mode="normal" in="SourceGraphic" in2="effect1_dropShadow_8_97" result="shape" />
		</filter>
	</defs>
</svg>
